# xmcd
#
# Track frame offsets:
#	150
#	15791
#	32192
#	51093
#	68982
#	83615
#	94430
#	106341
#	123265
#	138929
#	154040
#	171231
#	186181
#	198842
#	212875
#	229713
#	241220
#	256516
#	275705
#	291311
#	306713
#
# Disc length: 4280 seconds
# Revision: 0
# Processed by: cddbd v1.5.2PL0 Copyright (c) Steve Scherf et al.
# Submitted via: dBpowerAMP V12.0
#
DISCID=2810b615
DTITLE=Tumbleweed - The Collection
DYEAR=1994
DGENRE=Folk
TTITLE0=Wake Up
TTITLE1=Arizona Rain
TTITLE2=Nobody's Fault But Mine
TTITLE3=The Woman She Used to Be
TTITLE4=I Don't Want Flowers
TTITLE5=Children Go Where I Send Thee
TTITLE6=Angry Words
TTITLE7=Tripped
TTITLE8=I'd Like to Be a Train
TTITLE9=Living in Our Country World
TTITLE10=A Good Imitation of the Blues
TTITLE11=The Memory of Your Smile
TTITLE12=All My Loving
TTITLE13=No Big Deal
TTITLE14=You'll Be Mine
TTITLE15=Country Blues
TTITLE16=I Know You Love Me
TTITLE17=Chain of Pain
TTITLE18=Let Your Child Be Free
TTITLE19=Today Has Been a Lonesome Day
TTITLE20=Strong Enough
EXTD=
EXTT0=
EXTT1=
EXTT2=
EXTT3=
EXTT4=
EXTT5=
EXTT6=
EXTT7=
EXTT8=
EXTT9=
EXTT10=
EXTT11=
EXTT12=
EXTT13=
EXTT14=
EXTT15=
EXTT16=
EXTT17=
EXTT18=
EXTT19=
EXTT20=
PLAYORDER=
